<?xml version="1.0" encoding="utf-8"?>
<!-- created with bpmn-js / http://bpmn.io -->
<!DOCTYPE svg PUBLIC "-//W3C//DTD SVG 1.1//EN" "http://www.w3.org/Graphics/SVG/1.1/DTD/svg11.dtd">
<svg xmlns="http://www.w3.org/2000/svg" xmlns:xlink="http://www.w3.org/1999/xlink" width="558" height="245" viewBox="91 75 558 245" version="1.1"><defs><pattern id="djs-grid-pattern-273595" width="10" height="10" patternUnits="userSpaceOnUse"><circle cx="0.5" cy="0.5" r="0.5" style="fill: rgb(204, 204, 204);"/></pattern></defs><g class="djs-group"><g class="djs-element djs-shape" data-element-id="Start" transform="matrix(1, 0, 0, 1, 120, 100)" style="display: block;"><g class="djs-visual"><circle cx="18" cy="18" r="18" style="stroke-linecap: round; stroke-linejoin: round; stroke: rgb(34, 36, 42); stroke-width: 2px; fill: white; fill-opacity: 0.95;"/></g><rect style="fill: none; stroke-opacity: 0; stroke: white; stroke-width: 15px;" class="djs-hit djs-hit-all" x="0" y="0" width="36" height="36"/><circle cx="18" cy="18" r="23" style="fill: none;" class="djs-outline"/></g></g><g class="djs-group"><g class="djs-element djs-shape" data-element-id="Start_label" transform="matrix(1, 0, 0, 1, 96, 136)" style="display: block;"><g class="djs-visual"><text style="font-family: Arial, sans-serif; font-size: 11px; font-weight: normal; fill: rgb(34, 36, 42);" lineHeight="1.2" class="djs-label"><tspan x="3.686565399169922" y="9.899999999999999">Submit Transfer</tspan><tspan x="29.08955192565918" y="23.099999999999998">(TLS, </tspan><tspan x="14.932836532592773" y="36.3">MFA+JWT)</tspan></text></g><rect style="fill: none; stroke-opacity: 0; stroke: white; stroke-width: 15px;" class="djs-hit djs-hit-all" x="0" y="0" width="85" height="27"/><rect x="-5" y="-5" rx="4" width="95" height="37" style="fill: none;" class="djs-outline"/></g></g><g class="djs-group"><g class="djs-element djs-shape" data-element-id="T_Gw" transform="matrix(1, 0, 0, 1, 210, 80)" style="display: block;"><g class="djs-visual"><rect x="0" y="0" width="130" height="80" rx="10" ry="10" style="stroke-linecap: round; stroke-linejoin: round; stroke: rgb(34, 36, 42); stroke-width: 2px; fill: white; fill-opacity: 0.95;"/><text style="font-family: Arial, sans-serif; font-size: 12px; font-weight: normal; fill: rgb(34, 36, 42);" lineHeight="1.2" class="djs-label"><tspan x="9.686565399169922" y="36.4">API Gateway (authn, </tspan><tspan x="19.395523071289062" y="50.8">HMAC, rate limit)</tspan></text></g><rect style="fill: none; stroke-opacity: 0; stroke: white; stroke-width: 15px;" class="djs-hit djs-hit-all" x="0" y="0" width="130" height="80"/><rect x="-5" y="-5" rx="14" width="140" height="90" style="fill: none;" class="djs-outline"/></g></g><g class="djs-group"><g class="djs-element djs-shape" data-element-id="T_Txn" transform="matrix(1, 0, 0, 1, 390, 80)" style="display: block;"><g class="djs-visual"><rect x="0" y="0" width="140" height="80" rx="10" ry="10" style="stroke-linecap: round; stroke-linejoin: round; stroke: rgb(34, 36, 42); stroke-width: 2px; fill: white; fill-opacity: 0.95;"/><text style="font-family: Arial, sans-serif; font-size: 12px; font-weight: normal; fill: rgb(34, 36, 42);" lineHeight="1.2" class="djs-label"><tspan x="17.268657684326172" y="36.4">Transaction Service </tspan><tspan x="20.05970001220703" y="50.8">(server-side authz)</tspan></text></g><rect style="fill: none; stroke-opacity: 0; stroke: white; stroke-width: 15px;" class="djs-hit djs-hit-all" x="0" y="0" width="140" height="80"/><rect x="-5" y="-5" rx="14" width="150" height="90" style="fill: none;" class="djs-outline"/></g></g><g class="djs-group"><g class="djs-element djs-shape" data-element-id="DS_DB" transform="matrix(1, 0, 0, 1, 410, 220)" style="display: block;"><g class="djs-visual"><path style="fill: white; stroke-linecap: round; stroke-linejoin: round; stroke: rgb(34, 36, 42); stroke-width: 2px; fill-opacity: 0.95;" d="m  0,7.98 l  0,44.26229508196721 c  2.622950819672131,9.836065573770492 76.0655737704918,9.836065573770492  78.68852459016392,0 l  0,-44.26229508196721 c -2.622950819672131,-9.836065573770492 -76.0655737704918,-9.836065573770492 -78.68852459016392,0c  2.622950819672131,9.836065573770492 76.0655737704918,9.836065573770492  78.68852459016392,0 m  -78.68852459016392,6.885245901639344c  2.622950819672131,9.836065573770492 76.0655737704918,9.836065573770492 78.68852459016392,0m  -78.68852459016392,6.885245901639344c  2.622950819672131,9.836065573770492 76.0655737704918,9.836065573770492  78.68852459016392,0"/></g><rect style="fill: none; stroke-opacity: 0; stroke: white; stroke-width: 15px;" class="djs-hit djs-hit-all" x="0" y="0" width="80" height="60"/><rect x="0" y="0" rx="4" width="100" height="100" style="fill: none;" class="djs-outline"/></g></g><g class="djs-group"><g class="djs-element djs-shape" data-element-id="DS_DB_label" transform="matrix(1, 0, 0, 1, 409, 280)" style="display: block;"><g class="djs-visual"><text style="font-family: Arial, sans-serif; font-size: 11px; font-weight: normal; fill: rgb(34, 36, 42);" lineHeight="1.2" class="djs-label"><tspan x="0.029850006103515625" y="9.899999999999999">Account / Ledger</tspan><tspan x="4.6119384765625" y="23.099999999999998">DB (encrypted)</tspan></text></g><rect style="fill: none; stroke-opacity: 0; stroke: white; stroke-width: 15px;" class="djs-hit djs-hit-all" x="0" y="0" width="83" height="27"/><rect x="-5" y="-5" rx="4" width="93" height="37" style="fill: none;" class="djs-outline"/></g></g><g class="djs-group"><g class="djs-element djs-shape" data-element-id="DS_Log" transform="matrix(1, 0, 0, 1, 520, 220)" style="display: block;"><g class="djs-visual"><path style="fill: white; stroke-linecap: round; stroke-linejoin: round; stroke: rgb(34, 36, 42); stroke-width: 2px; fill-opacity: 0.95;" d="m  0,7.98 l  0,44.26229508196721 c  2.622950819672131,9.836065573770492 76.0655737704918,9.836065573770492  78.68852459016392,0 l  0,-44.26229508196721 c -2.622950819672131,-9.836065573770492 -76.0655737704918,-9.836065573770492 -78.68852459016392,0c  2.622950819672131,9.836065573770492 76.0655737704918,9.836065573770492  78.68852459016392,0 m  -78.68852459016392,6.885245901639344c  2.622950819672131,9.836065573770492 76.0655737704918,9.836065573770492 78.68852459016392,0m  -78.68852459016392,6.885245901639344c  2.622950819672131,9.836065573770492 76.0655737704918,9.836065573770492  78.68852459016392,0"/></g><rect style="fill: none; stroke-opacity: 0; stroke: white; stroke-width: 15px;" class="djs-hit djs-hit-all" x="0" y="0" width="80" height="60"/><rect x="0" y="0" rx="4" width="100" height="100" style="fill: none;" class="djs-outline"/></g></g><g class="djs-group"><g class="djs-element djs-shape" data-element-id="DS_Log_label" transform="matrix(1, 0, 0, 1, 526, 280)" style="display: block;"><g class="djs-visual"><text style="font-family: Arial, sans-serif; font-size: 11px; font-weight: normal; fill: rgb(34, 36, 42);" lineHeight="1.2" class="djs-label"><tspan x="10.82089614868164" y="9.899999999999999">Audit Log </tspan><tspan x="0.14179229736328125" y="23.099999999999998">(append-only)</tspan></text></g><rect style="fill: none; stroke-opacity: 0; stroke: white; stroke-width: 15px;" class="djs-hit djs-hit-all" x="0" y="0" width="68" height="27"/><rect x="-5" y="-5" rx="4" width="78" height="37" style="fill: none;" class="djs-outline"/></g></g><g class="djs-group"><g class="djs-element djs-shape" data-element-id="End" transform="matrix(1, 0, 0, 1, 590, 100)" style="display: block;"><g class="djs-visual"><circle cx="18" cy="18" r="18" style="stroke-linecap: round; stroke-linejoin: round; stroke: rgb(34, 36, 42); stroke-width: 4px; fill: white; fill-opacity: 0.95;"/></g><rect style="fill: none; stroke-opacity: 0; stroke: white; stroke-width: 15px;" class="djs-hit djs-hit-all" x="0" y="0" width="36" height="36"/><circle cx="18" cy="18" r="24" style="fill: none;" class="djs-outline"/></g></g><g class="djs-group"><g class="djs-element djs-shape" data-element-id="End_label" transform="matrix(1, 0, 0, 1, 573, 136)" style="display: block;"><g class="djs-visual"><text style="font-family: Arial, sans-serif; font-size: 11px; font-weight: normal; fill: rgb(34, 36, 42);" lineHeight="1.2" class="djs-label"><tspan x="0.4328346252441406" y="9.899999999999999">Signed receipt</tspan></text></g><rect style="fill: none; stroke-opacity: 0; stroke: white; stroke-width: 15px;" class="djs-hit djs-hit-all" x="0" y="0" width="71" height="14"/><rect x="-5" y="-5" rx="4" width="81" height="24" style="fill: none;" class="djs-outline"/></g></g></svg>